<?xml version="1.0" ?><svg id="Layer_1" style="enable-background:new 0 0 41 41;" version="1.1" viewBox="0 0 41 41" xml:space="preserve" xmlns="http://www.w3.org/2000/svg" xmlns:xlink="http://www.w3.org/1999/xlink"><style type="text/css">
	.st0{fill:#B7BDD9;}
	.st1{fill:#AAB1CC;}
	.st2{fill:#FFFFFF;}
	.st3{fill:#FF7885;}
	.st4{fill:#F2576E;}
	.st5{fill:#36FFB6;}
	.st6{fill:#27E29A;}
	.st7{fill:#E6A77C;}
	.st8{fill:#D89568;}
	.st9{fill:#FF8DE1;}
	.st10{fill:#EF73D5;}
	.st11{fill:#FFD766;}
	.st12{fill:#F7C74D;}
	.st13{fill:#5AD0FF;}
	.st14{fill:#34BDE8;}
</style><g><g><ellipse class="st11" cx="20.5" cy="20.5" rx="20" ry="20" transform="matrix(0.9239 -0.3827 0.3827 0.9239 -6.2845 9.4055)"/><path class="st12" d="M20.5,38.8c-10.8,0-19.5-8.5-20-19.2c0,0.3,0,0.6,0,0.8c0,11,9,20,20,20c11,0,20-9,20-20c0-0.3,0-0.6,0-0.8    C40,30.3,31.3,38.8,20.5,38.8z"/></g><path class="st12" d="M28.7,8.8H12.3c-2.1,0-3.8,1.7-3.8,3.8V29c0,2.1,1.7,3.8,3.8,3.8h16.5c2.1,0,3.8-1.7,3.8-3.8V12.6   C32.5,10.5,30.8,8.8,28.7,8.8z M23.9,15.3h-2.6c-0.1,0-0.2,0.1-0.2,0.2v2.1h1.3c0.8,0,1.5,0.7,1.5,1.5s-0.7,1.5-1.5,1.5H21v7.2   c0,0.8-0.7,1.5-1.5,1.5S18,28.6,18,27.8v-7.2h-0.9c-0.8,0-1.5-0.7-1.5-1.5s0.7-1.5,1.5-1.5H18v-2.1c0-1.8,1.4-3.2,3.2-3.2h2.6   c0.8,0,1.5,0.7,1.5,1.5S24.7,15.3,23.9,15.3z"/><path class="st2" d="M28.7,6.9H12.3c-2.1,0-3.8,1.7-3.8,3.8v16.5c0,2.1,1.7,3.8,3.8,3.8h16.5c2.1,0,3.8-1.7,3.8-3.8V10.7   C32.5,8.6,30.8,6.9,28.7,6.9z M23.9,13.4h-2.6c-0.1,0-0.2,0.1-0.2,0.2v2.1h1.3c0.8,0,1.5,0.7,1.5,1.5s-0.7,1.5-1.5,1.5H21v7.2   c0,0.8-0.7,1.5-1.5,1.5S18,26.7,18,25.9v-7.2h-0.9c-0.8,0-1.5-0.7-1.5-1.5s0.7-1.5,1.5-1.5H18v-2.1c0-1.8,1.4-3.2,3.2-3.2h2.6   c0.8,0,1.5,0.7,1.5,1.5S24.7,13.4,23.9,13.4z"/></g></svg>