<?xml version="1.0" ?><!DOCTYPE svg  PUBLIC '-//W3C//DTD SVG 1.1//EN'  'http://www.w3.org/Graphics/SVG/1.1/DTD/svg11.dtd'><svg id="Layer_1" style="enable-background:new 0 0 75 75;" version="1.1" viewBox="0 0 75 75" xml:space="preserve" xmlns="http://www.w3.org/2000/svg" xmlns:xlink="http://www.w3.org/1999/xlink"><style type="text/css">
	.st0{fill:#FFE100;}
	.st1{fill:#ED1C24;}
	.st2{fill:#F9A01B;}
	.st3{fill:#67923D;}
	.st4{fill:#9990C5;}
	.st5{fill:#406325;}
</style><g><g><path class="st0" d="M37.5,73.5c-9.7,0-19.5-1.7-29.1-5.1L7,67.9l-0.5-1.3c-6.8-19.3-6.8-38.9,0-58.2L7,7.1l1.3-0.5    C18,3.2,27.8,1.5,37.5,1.5S57,3.2,66.6,6.6L68,7.1l0.5,1.3c6.8,19.3,6.8,38.9,0,58.2L68,67.9l-1.3,0.5    C57,71.8,47.2,73.5,37.5,73.5z M11.7,63.3c8.6,2.9,17.3,4.3,25.8,4.3c8.6,0,17.2-1.4,25.8-4.3c5.7-17.1,5.7-34.5,0-51.6    c-8.6-2.9-17.3-4.3-25.8-4.3c-8.6,0-17.2,1.4-25.8,4.3C6,28.8,6,46.2,11.7,63.3z"/></g><g><path class="st0" d="M22.6,17.9c2.6,0,4.7,2.1,4.7,4.7c0,2.7-2.3,4.8-4.7,4.7c-2.5,0.1-4.7-2-4.7-4.7C17.9,20,20,17.9,22.6,17.9z"/><path class="st0" d="M25.3,57.1h-5.5c-0.7,0-1.3-0.6-1.3-1.3V32.2c0-0.7,0.6-1.3,1.3-1.3h5.5c0.7,0,1.3,0.6,1.3,1.3v23.6    C26.6,56.5,26.1,57.1,25.3,57.1z"/><path class="st0" d="M57.1,39.2c0-4.9-4-8.9-8.9-8.9h-1.4c-2.7,0-5.1,1.3-6.5,3.4c-0.2,0.2-0.3,0.5-0.4,0.7c0,0-0.1,0-0.1,0v-2.9    c0-0.3-0.2-0.5-0.5-0.5h-6.9c-0.3,0-0.5,0.2-0.5,0.5v25.1c0,0.3,0.2,0.5,0.5,0.5l7,0c0.3,0,0.5-0.2,0.5-0.5V42.1    c0-2.5,2-4.6,4.5-4.6c1.3,0,2.4,0.5,3.3,1.3c0.8,0.8,1.3,2,1.3,3.2v14.5c0,0.3,0.2,0.5,0.5,0.5l7.1,0c0.3,0,0.5-0.2,0.5-0.5    L57.1,39.2L57.1,39.2z"/></g></g></svg>