<?xml version="1.0" ?><svg id="Layer_1" style="enable-background:new 0 0 64 64;" version="1.1" viewBox="0 0 64 64" xml:space="preserve" xmlns="http://www.w3.org/2000/svg" xmlns:xlink="http://www.w3.org/1999/xlink"><style type="text/css">
	.st0{fill:#56AAFF;}
	.st1{fill:#D9DCE1;}
	.st2{fill:#FFFFFF;}
	.st3{fill:none;stroke:#FFFFFF;stroke-width:2;stroke-miterlimit:10;}
	.st4{fill:#0478ED;}
	.st5{fill:none;stroke:#FFFFFF;stroke-width:2;stroke-linecap:square;stroke-linejoin:round;stroke-miterlimit:10;}
	.st6{fill:none;stroke:#0478ED;stroke-width:2;stroke-miterlimit:10;}
	.st7{fill-rule:evenodd;clip-rule:evenodd;fill:#FFFFFF;}
	.st8{fill-rule:evenodd;clip-rule:evenodd;fill:none;stroke:#FFFFFF;stroke-width:2;stroke-linecap:square;stroke-miterlimit:10;}
	.st9{fill:none;stroke:#56AAFF;stroke-width:9.9179;stroke-linecap:round;stroke-miterlimit:10;}
	.st10{fill:none;stroke:#D9DCE1;stroke-width:2;stroke-miterlimit:10;}
	.st11{fill-rule:evenodd;clip-rule:evenodd;fill:none;stroke:#FFFFFF;stroke-width:2;stroke-miterlimit:10;}
	.st12{fill:none;stroke:#D9DCE1;stroke-width:4;stroke-miterlimit:10;}
	.st13{fill:none;stroke:#56AAFF;stroke-width:3;stroke-miterlimit:10;}
	.st14{fill-rule:evenodd;clip-rule:evenodd;fill:#56AAFF;}
	.st15{fill:none;stroke:#56AAFF;stroke-width:2;stroke-miterlimit:10;}
	.st16{fill:none;stroke:#FFFFFF;stroke-width:2;stroke-linecap:square;stroke-miterlimit:10;}
	.st17{fill:none;stroke:#56AAFF;stroke-width:7;stroke-linecap:square;stroke-miterlimit:10;}
	.st18{fill-rule:evenodd;clip-rule:evenodd;fill:#D9DCE1;}
	
		.st19{fill-rule:evenodd;clip-rule:evenodd;fill:none;stroke:#56AAFF;stroke-width:3;stroke-linecap:round;stroke-linejoin:round;stroke-miterlimit:10;}
	.st20{fill-rule:evenodd;clip-rule:evenodd;fill:none;stroke:#56AAFF;stroke-width:4;stroke-linecap:square;stroke-miterlimit:10;}
	.st21{fill-rule:evenodd;clip-rule:evenodd;fill:#0478ED;}
	.st22{fill:none;stroke:#0478ED;stroke-width:2;stroke-linecap:square;stroke-miterlimit:10;}
	.st23{fill:none;stroke:#0478ED;stroke-width:2;stroke-linecap:square;stroke-miterlimit:10;stroke-dasharray:0.1,4;}
	.st24{fill:none;stroke:#D9DCE1;stroke-width:11.5118;stroke-linecap:round;stroke-miterlimit:10;}
	.st25{fill:none;stroke:#D9DCE1;stroke-width:4;stroke-linecap:square;stroke-miterlimit:10;}
	.st26{fill:none;stroke:#FFFFFF;stroke-width:4;stroke-linecap:square;stroke-linejoin:round;stroke-miterlimit:10;}
	.st27{fill:none;stroke:#D9DCE1;stroke-width:10;stroke-linecap:square;stroke-miterlimit:10;}
	.st28{fill:none;stroke:#FFFFFF;stroke-width:4;stroke-linecap:round;stroke-linejoin:round;stroke-miterlimit:10;}
	.st29{fill:none;stroke:#D9DCE1;stroke-width:8;stroke-linecap:round;stroke-miterlimit:10;}
	.st30{fill:none;stroke:#FFFFFF;stroke-width:3;stroke-miterlimit:10;}
	.st31{fill:none;stroke:#FFFFFF;stroke-width:4;stroke-linecap:square;stroke-miterlimit:10;}
	.st32{fill:none;stroke:#56AAFF;stroke-width:6;stroke-miterlimit:10;}
	.st33{fill:#4A4A70;}
	.st34{fill:none;stroke:#56AAFF;stroke-width:5;stroke-miterlimit:10;}
	.st35{fill:none;stroke:#0478ED;stroke-width:4;stroke-linecap:square;stroke-miterlimit:10;}
	.st36{fill:none;stroke:#0478ED;stroke-width:3;stroke-linecap:square;stroke-miterlimit:10;}
	.st37{fill:none;stroke:#0478ED;stroke-width:2;stroke-linecap:round;stroke-miterlimit:10;}
	.st38{fill:none;stroke:#FFFFFF;stroke-width:4;stroke-linecap:round;stroke-miterlimit:10;}
	.st39{fill:none;stroke:#56AAFF;stroke-width:2;stroke-linecap:round;stroke-linejoin:round;stroke-miterlimit:10;}
	.st40{fill:none;stroke:#0478ED;stroke-width:10;stroke-linecap:square;stroke-miterlimit:10;}
	.st41{fill:none;stroke:#0478ED;stroke-width:3;stroke-miterlimit:10;}
	.st42{fill:none;stroke:#0478ED;stroke-width:9;stroke-linecap:square;stroke-miterlimit:10;}
	.st43{fill:none;stroke:#56AAFF;stroke-width:9;stroke-linecap:square;stroke-miterlimit:10;}
	.st44{fill:none;stroke:#56AAFF;stroke-width:5;stroke-linecap:square;stroke-miterlimit:10;}
	.st45{fill:none;stroke:#56AAFF;stroke-width:3;stroke-linecap:square;stroke-miterlimit:10;}
	.st46{fill:none;stroke:#D9DCE1;stroke-width:2;stroke-linecap:square;stroke-miterlimit:10;stroke-dasharray:0.1,4;}
	.st47{fill:none;stroke:#56AAFF;stroke-width:10;stroke-linecap:square;stroke-miterlimit:10;}
	.st48{fill:none;stroke:#D9DCE1;stroke-width:6;stroke-linecap:square;stroke-miterlimit:10;}
</style><path class="st0" d="M47.9,24.3c0-0.1,0-0.2,0-0.3c0-8.4-6.8-15.3-15.3-15.3c-7.4,0-13.6,5.3-15,12.3c-8.6,0.2-14.9,9.4-10,18.5  c1.9,3.4,5.5,5.5,9.4,5.5h31.3c3.3,0,6.4-1.7,8-4.6C60.8,32.5,55.4,24.5,47.9,24.3z"/><g><circle class="st2" cx="33" cy="23" r="8"/></g><path class="st6" d="M36,20h-1c-1.1,0-2,0.9-2,2v7"/><line class="st6" x1="36" x2="31" y1="24" y2="24"/><g><circle class="st2" cx="47" cy="35" r="6"/></g><path class="st1" d="M49.6,34.7l-3.8-2.2c-0.2-0.1-0.4,0-0.4,0.3v4.4c0,0.2,0.2,0.4,0.4,0.3l3.8-2.2C49.8,35.1,49.8,34.9,49.6,34.7z  "/><g><circle class="st2" cx="18" cy="33" r="7"/></g><path class="st0" d="M17.9,32.1c0-0.1,0-0.3,0-0.4c0-0.5,0.4-1.1,0.9-1.2c0.6-0.2,1.1-0.1,1.5,0.3c0,0,0.1,0,0.1,0  c0.3-0.1,0.5-0.2,0.8-0.3c0,0,0,0,0.1,0c-0.1,0.3-0.3,0.6-0.6,0.8c0.3,0,0.5-0.1,0.8-0.2c0,0,0,0,0,0c-0.1,0.1-0.2,0.3-0.3,0.4  c-0.1,0.1-0.2,0.2-0.3,0.3c0,0,0,0.1,0,0.1c0,0.9-0.2,1.8-0.8,2.5c-0.6,0.9-1.5,1.4-2.5,1.6c-0.8,0.1-1.5,0.1-2.2-0.2  c-0.3-0.1-0.5-0.2-0.8-0.4c0.8,0.1,1.5-0.1,2.1-0.6c-0.7-0.1-1.1-0.4-1.3-1c0.2,0,0.4,0,0.6,0c-0.4-0.1-0.7-0.3-1-0.7  c-0.1-0.2-0.2-0.5-0.2-0.7c0.2,0.1,0.4,0.2,0.6,0.2c-0.3-0.2-0.5-0.5-0.6-0.9c-0.1-0.4,0-0.7,0.2-1C15.8,31.5,16.7,32,17.9,32.1z"/><circle class="st2" cx="30" cy="39" r="3"/><circle class="st2" cx="36" cy="36" r="2"/><circle class="st0" cx="22" cy="51" r="3"/><circle class="st0" cx="32" cy="51" r="3"/><circle class="st0" cx="42" cy="51" r="3"/></svg>