<?xml version="1.0" ?><!DOCTYPE svg  PUBLIC '-//W3C//DTD SVG 1.1//EN'  'http://www.w3.org/Graphics/SVG/1.1/DTD/svg11.dtd'><svg enable-background="new 0 0 512 512" height="512px" id="Layer_3" version="1.1" viewBox="0 0 512 512" width="512px" xml:space="preserve" xmlns="http://www.w3.org/2000/svg" xmlns:xlink="http://www.w3.org/1999/xlink"><g><path d="M479.579,434.579c0,24.75-20.25,45-45,45H77.421c-24.75,0-45-20.25-45-45V77.421c0-24.75,20.25-45,45-45   h357.158c24.75,0,45,20.25,45,45V434.579z" fill="#FDF196"/></g><g><g><path d="M414.845,151.281c-7.293,3.234-14.859,5.785-22.625,7.629c8.559-8.129,14.992-18.301,18.621-29.652    c1.035-3.238-2.484-6.043-5.41-4.309c-10.805,6.41-22.441,11.215-34.59,14.289c-0.703,0.18-1.43,0.27-2.16,0.27    c-2.215,0-4.363-0.82-6.059-2.313c-12.922-11.391-29.547-17.664-46.805-17.664c-7.469,0-15.008,1.164-22.41,3.461    c-22.938,7.113-40.637,26.035-46.191,49.379c-2.082,8.754-2.645,17.52-1.676,26.047c0.109,0.98-0.352,1.664-0.637,1.984    c-0.504,0.563-1.215,0.887-1.953,0.887c-0.082,0-0.168-0.004-0.25-0.012c-50.211-4.668-95.488-28.855-127.492-68.113    c-1.629-2.004-4.762-1.758-6.063,0.473c-6.266,10.754-9.578,23.051-9.578,35.566c0,19.176,7.707,37.25,21.09,50.426    c-5.629-1.336-11.078-3.438-16.137-6.25c-2.449-1.359-5.461,0.391-5.496,3.191c-0.348,28.488,16.332,53.84,41.32,65.254    c-0.504,0.012-1.008,0.016-1.512,0.016c-3.961,0-7.973-0.379-11.918-1.137c-2.758-0.523-5.074,2.09-4.219,4.762    c8.113,25.324,29.914,43.988,56.004,48.223c-21.652,14.535-46.871,22.203-73.113,22.203l-8.18-0.004    c-2.523,0-4.656,1.645-5.297,4.086c-0.633,2.402,0.531,4.941,2.684,6.191c29.57,17.211,63.305,26.305,97.563,26.305    c29.988,0,58.039-5.949,83.375-17.688c23.227-10.758,43.75-26.137,61.004-45.711c16.074-18.234,28.641-39.281,37.355-62.563    c8.305-22.188,12.695-45.867,12.695-68.469v-1.078c0-3.629,1.641-7.043,4.504-9.371c10.867-8.824,20.332-19.211,28.129-30.871    C421.478,153.641,418.231,149.781,414.845,151.281L414.845,151.281z M414.845,151.281" fill="#7AA6D8"/></g></g></svg>